Coordinates
version=1
nRows=6
nColumns=36
inDegrees=yes

Units are S.I. units (second, meters, Newtons, ...)
If the header above contains a line with 'inDegrees', this indicates whether rotational values are in degrees (yes) or radians (no).

endheader
time	pelvis_tilt	pelvis_list	pelvis_rotation	pelvis_tx	pelvis_ty	pelvis_tz	hip_flexion_r	hip_adduction_r	hip_rotation_r	knee_angle_r	knee_angle_r_beta	ankle_angle_r	subtalar_angle_r	mtp_angle_r	hip_flexion_l	hip_adduction_l	hip_rotation_l	knee_angle_l	knee_angle_l_beta	ankle_angle_l	subtalar_angle_l	mtp_angle_l	lumbar_extension	lumbar_bending	lumbar_rotation	arm_flex_r	arm_add_r	arm_rot_r	elbow_flex_r	pro_sup_r	arm_flex_l	arm_add_l	arm_rot_l	elbow_flex_l	pro_sup_l
      6.33333330	     -9.84609628	     12.84302231	     17.27220212	      0.78201566	      0.69202398	      0.00513484	     87.57288274	    -18.26907281	     20.77665184	     52.47256829	      0.91581908	    -12.52188222	     -2.85800325	     -7.49999987	     70.75788743	     20.53989536	    -10.31486482	     88.67974765	      1.54775358	     30.57855111	    -14.73774133	     -7.49999987	    -45.95456450	     -9.49262595	    -14.96203334	     72.67430834	     11.74500806	     31.33092752	    123.69925413	    105.09477599	     96.56227858	      7.93191373	     64.37096754	    117.66971134	     95.77795292
      6.35000000	     -9.41843475	     12.82622089	     16.75624764	      0.78215554	      0.70101459	      0.00456870	     86.38292963	    -18.22952123	     20.10306167	     51.46234061	      0.89818728	    -12.59531384	     -2.19835022	     -7.49999987	     69.73014447	     20.62321908	     -9.76429685	     87.82397825	      1.53281758	     30.35830782	    -14.89188450	     -7.49999987	    -45.62908790	     -9.38872384	    -14.98981592	     71.25965601	     13.24711430	     24.66261969	    122.09648087	    104.71972052	     94.64778309	      7.37377412	     63.23960117	    117.36001651	     95.33318653
      6.36666670	     -8.77017565	     13.03573713	     16.11441335	      0.78225087	      0.70859879	      0.00493919	     84.89865156	    -18.22586350	     19.55538185	     50.25705135	      0.87715102	    -12.71014746	     -1.42865134	     -7.49999987	     68.33264670	     20.87878626	     -9.24999441	     86.73447001	      1.51380208	     30.02484165	    -15.04441191	     -7.49999987	    -45.26386148	     -9.62767657	    -15.44746042	     69.96612109	     15.49515528	     19.87821214	    119.78002121	    106.51213011	     93.96215347	      6.52297992	     62.27108385	    117.59247211	     91.36530961
      6.38333330	     -8.23338890	     13.19783345	     15.42736157	      0.78818908	      0.71361502	      0.00238912	     83.43914947	    -18.12758886	     19.05567278	     49.10933752	      0.85711963	    -12.63850218	     -0.78571136	     -7.49999987	     66.95561150	     21.12145459	     -8.72146297	     85.69375742	      1.49563822	     29.88411012	    -15.07437168	     -7.49999987	    -44.79325483	     -9.79408861	    -15.79941269	     69.15330393	     17.27573218	     18.84179953	    119.51207164	    106.58402735	     93.33632136	      6.54856645	     61.06234507	    117.35714094	     91.11425692
      6.40000000	     -7.78757549	     13.42356586	     14.54512688	      0.79484465	      0.72496486	     -0.00011899	     81.91952102	    -17.92178195	     18.68651622	     47.86082057	      0.83532890	    -12.52323116	     -0.31088702	     -7.49999987	     65.40851239	     21.43914774	     -8.21033346	     84.44588105	      1.47385866	     30.03042254	    -14.94348377	     -7.49999987	    -44.11084908	    -10.08426831	    -15.62972080	     68.11924098	     17.71044154	     18.95077951	    119.49621493	    102.02054094	     91.82202672	      6.45392430	     61.05773967	    118.01057994	     88.60625593
      6.41666670	     -7.61287478	     13.55796393	     13.92671172	      0.78920626	      0.73131386	      0.00538844	     80.63552129	    -17.73569577	     18.27240315	     46.74539315	      0.81586102	    -12.63957159	     -0.04969893	     -7.49999987	     64.20287987	     21.60451938	     -7.87330698	     83.20953265	      1.45228031	     29.93868159	    -15.04835068	     -7.49999987	    -43.58929802	    -10.12798080	    -15.37270110	     68.75902394	     17.39351309	     18.92232364	    117.52858074	    106.96115574	     92.28516643	      5.46202428	     61.24864664	    117.90445202	     89.83242480
